<svg xmlns="http://www.w3.org/2000/svg" viewBox="0 0 32 32">
  <defs>
    <linearGradient id="goldGradient" x1="0%" y1="0%" x2="0%" y2="100%">
      <stop offset="0%" style="stop-color:#ffe9a0;stop-opacity:1" />
      <stop offset="50%" style="stop-color:#f4d03f;stop-opacity:1" />
      <stop offset="100%" style="stop-color:#d4af37;stop-opacity:1" />
    </linearGradient>
  </defs>

  <!-- Outer glow -->
  <path d="M16 2 L28 8 L28 16 Q28 26 16 30 Q4 26 4 16 L4 8 Z"
        fill="none" stroke="#ffdf80" stroke-width="1" opacity="0.5"/>

  <!-- Shield background with brighter stroke -->
  <path d="M16 2 L28 8 L28 16 Q28 26 16 30 Q4 26 4 16 L4 8 Z"
        fill="#53422a" stroke="#ffdf80" stroke-width="1.5"/>

  <!-- Inner shield highlight - brighter -->
  <path d="M16 4 L26 9 L26 16 Q26 24 16 28 Q6 24 6 16 L6 9 Z"
        fill="url(#goldGradient)" opacity="1"/>

  <!-- Skill icon symbol (stylized 'S' for Skillbound) - white for contrast -->
  <path d="M16 10 Q18 10 19 11 Q20 12 20 14 Q20 15 19 16 Q18 17 16 17 Q14 17 13 16 Q12 15 12 14"
        fill="none" stroke="#ffffff" stroke-width="2.5" stroke-linecap="round" opacity="0.95"/>
  <path d="M16 17 Q14 17 13 18 Q12 19 12 21 Q12 22 13 23 Q14 24 16 24 Q18 24 19 23 Q20 22 20 21"
        fill="none" stroke="#ffffff" stroke-width="2.5" stroke-linecap="round" opacity="0.95"/>

  <!-- S shadow for depth -->
  <path d="M16 10 Q18 10 19 11 Q20 12 20 14 Q20 15 19 16 Q18 17 16 17 Q14 17 13 16 Q12 15 12 14"
        fill="none" stroke="#1a1612" stroke-width="2.8" stroke-linecap="round" opacity="0.3" transform="translate(0.3, 0.3)"/>
  <path d="M16 17 Q14 17 13 18 Q12 19 12 21 Q12 22 13 23 Q14 24 16 24 Q18 24 19 23 Q20 22 20 21"
        fill="none" stroke="#1a1612" stroke-width="2.8" stroke-linecap="round" opacity="0.3" transform="translate(0.3, 0.3)"/>

  <!-- Border accent - brighter -->
  <path d="M16 2 L28 8 L28 16 Q28 26 16 30 Q4 26 4 16 L4 8 Z"
        fill="none" stroke="#ffe9a0" stroke-width="0.8" opacity="0.7"/>
</svg>
