<svg xmlns="http://www.w3.org/2000/svg" viewBox="0 0 100 20">
  <defs>
    <linearGradient id="borderGold" x1="0%" y1="0%" x2="0%" y2="100%">
      <stop offset="0%" style="stop-color:#ffdf80;stop-opacity:1" />
      <stop offset="50%" style="stop-color:#d4af37;stop-opacity:1" />
      <stop offset="100%" style="stop-color:#8b7355;stop-opacity:1" />
    </linearGradient>
  </defs>

  <!-- Repeating border pattern -->
  <rect width="100" height="20" fill="#53422a"/>

  <!-- Top highlight -->
  <rect width="100" height="2" fill="url(#borderGold)" opacity="0.8"/>

  <!-- Bottom shadow -->
  <rect y="18" width="100" height="2" fill="#2a2014" opacity="0.6"/>

  <!-- Decorative diamonds -->
  <g fill="url(#borderGold)" stroke="#2a2014" stroke-width="0.5">
    <path d="M10 10 L15 6 L20 10 L15 14 Z"/>
    <path d="M30 10 L35 6 L40 10 L35 14 Z"/>
    <path d="M50 10 L55 6 L60 10 L55 14 Z"/>
    <path d="M70 10 L75 6 L80 10 L75 14 Z"/>
    <path d="M90 10 L95 6 L100 10 L95 14 Z"/>
  </g>

  <!-- Diamond highlights -->
  <g fill="none" stroke="#ffdf80" stroke-width="0.5" opacity="0.5">
    <path d="M10 10 L15 7"/>
    <path d="M30 10 L35 7"/>
    <path d="M50 10 L55 7"/>
    <path d="M70 10 L75 7"/>
    <path d="M90 10 L95 7"/>
  </g>
</svg>
